<?xml version="1.0" encoding="utf-8"?>
<!-- Generator: Adobe Illustrator 26.0.3, SVG Export Plug-In . SVG Version: 6.00 Build 0)  -->
<svg version="1.1" id="Layer_3" xmlns="http://www.w3.org/2000/svg" xmlns:xlink="http://www.w3.org/1999/xlink" x="0px" y="0px"
	 viewBox="0 0 2500 2500" style="enable-background:new 0 0 2500 2500;" xml:space="preserve">
<style type="text/css">
	.st0{fill:#FFFFFF;}
	.st1{fill:#321511;}
	.st2{fill:#4B1A13;}
	.st3{fill:#FBBA99;}
	.st4{fill:#FCB54C;}
	.st5{fill:#12090F;}
	.st6{fill:#01675E;}
	.st7{fill:#58B2AC;}
	.st8{fill:#E5E5E5;}
	.st9{fill:#FEC880;}
	.st10{fill:#3C6AB3;}
	.st11{fill:#171013;}
	.st12{fill:#E58676;}
	.st13{fill:#5A88C6;}
	.st14{fill:#7ACCC4;}
	.st15{fill:#1B0F0F;}
	.st16{fill:#F6917B;}
	.st17{fill:#F04D2C;}
	.st18{fill:#008E87;}
	.st19{fill:#872E1B;}
	.st20{opacity:0.79;}
	.st21{fill:#3B150F;}
	.st22{fill:#1F1317;}
	.st23{fill:#FED1A3;}
	.st24{fill:#FCD4B1;}
	.st25{fill:#CC2127;}
	.st26{fill:#00998E;}
	.st27{fill:#EE3224;}
	.st28{fill:#F15B5C;}
</style>
<rect class="st0" width="2500" height="2500"/>
<g>
	<g id="XMLID_150_">
		<path class="st1" d="M621.63,1209.59c0,0,42.11-33.69,29.86-52.83c-12.25-19.14-30.63-16.84-22.97-43.64
			c7.66-26.8,6.13-39.82-10.72-51.3s-15.31-13.02-22.2-52.07c-6.89-39.05-44.41-46.71-78.87-37.52
			c-34.46,9.19-49.77,26.8-57.43,58.96s-7.66,81.93-39.82,88.05c-32.16,6.13-37.52,58.19-51.3,90.35
			c-13.78,32.16-29.86,32.16-47.47,38.28c-17.61,6.13-42.11,55.89,47.47,65.08s166.92,8.42,166.92,8.42L621.63,1209.59z"/>
	</g>
	<g>
		<path class="st2" d="M650.32,1176.83c-1.84-4.88-5.88-9.74-11.08-13.33c-2.26-1.56-4.69-2.99-7.04-4.37
			c-5.61-3.3-11.4-6.72-15.07-12.01c-5.75-8.27-4.69-18.78-3.55-24.31c1.26-6.14,3.63-12.11,5.93-17.88
			c0.84-2.12,1.71-4.32,2.52-6.5c1.33-3.61,2.64-7.78,1.38-11.76c-1.46-4.6-5.67-7.24-9.75-9.79c-0.45-0.28-0.9-0.56-1.34-0.85
			c-12.03-7.67-19.66-19.08-20.41-30.54c-0.31-4.8,0.54-9.69,1.37-14.42c0.59-3.36,1.19-6.84,1.4-10.31
			c1.04-17.72-9.36-35.6-25.29-43.48c-15.93-7.89-36.47-5.33-49.96,6.23c-0.01,0.01-0.02,0.03-0.03,0.04
			c-0.11-0.03-0.22-0.03-0.34-0.02c-0.27,0.04-0.53,0.1-0.8,0.14c-5.66-1.87-11.98-3.69-18.88-5.3c-0.47-0.11-0.94,0.18-1.05,0.65
			c-0.11,0.47,0.18,0.94,0.65,1.05c5.68,1.33,10.96,2.8,15.79,4.31c-22.43,5.33-41.17,23.86-46.37,46.41
			c-2.29,9.93-2.09,20.32-1.89,30.37c0.22,11.08,0.44,22.53-2.73,33.19c-4.77,16.05-17.52,29.54-33.28,35.21
			c-2.04,0.73-4.17,1.36-6.23,1.96c-3.75,1.1-7.62,2.24-11.17,4.08c-14.34,7.43-19.78,24.13-21.76,33.43
			c-1.39,6.55-2.07,13.31-2.74,19.84c-0.68,6.67-1.38,13.57-2.83,20.21c-1.96,8.98-7.33,25.06-21.23,31.94
			c-3.57,1.77-7.69,2.93-11.67,4.05c-7.82,2.2-15.9,4.47-20.12,11.48c-5.88,9.75-0.16,22.25,7.17,30.69
			c13.36,15.4,32.62,25.74,52.83,28.36c0.04,0.01,0.08,0.01,0.11,0.01c0.43,0,0.81-0.32,0.86-0.76c0.06-0.48-0.27-0.91-0.75-0.98
			c-19.8-2.57-38.66-12.7-51.74-27.78c-6.92-7.98-12.39-19.69-6.99-28.65c3.87-6.41,11.27-8.5,19.11-10.7
			c4.06-1.14,8.25-2.32,11.97-4.16c14.55-7.2,20.13-23.85,22.16-33.13c1.47-6.73,2.18-13.68,2.86-20.4
			c0.66-6.49,1.34-13.2,2.71-19.66c1.91-8.99,7.15-25.14,20.85-32.24c3.4-1.77,7.2-2.88,10.86-3.96c2.09-0.61,4.24-1.25,6.33-2
			c16.26-5.86,29.43-19.78,34.36-36.35c3.25-10.92,3.02-22.51,2.8-33.72c-0.2-9.95-0.4-20.23,1.84-29.95
			c5.28-22.9,24.93-41.53,48.03-45.72c2.29,0.76,4.47,1.53,6.53,2.29c-9.35,4.92-18.33,11.88-24.8,19.27
			c-10.48,11.96-12.74,28.38-14.92,44.26c-0.16,1.19-0.33,2.38-0.49,3.57c-3.06,21.8-9.51,53.25-30.02,74.62
			c-5.97,6.22-13.13,11.62-20.06,16.84c-11.82,8.92-24.05,18.14-30.53,31.64c-2.94,6.14-4.52,12.85-6.04,19.34
			c-0.45,1.9-0.89,3.81-1.37,5.7c-3.64,14.33-8.66,24.27-15.79,31.26c-1.78,1.75-3.8,3.41-5.75,5.01
			c-4.82,3.97-9.81,8.07-12.01,14.03c-2.68,7.26-0.46,16.24,5.66,22.87c4.72,5.13,11.35,8.9,20.87,11.89
			c3.35,1.05,9.13,2.52,15.28,2.51c6.37,0,13.15-1.57,18.03-6.81c0.33-0.35,0.31-0.9-0.04-1.23c-0.35-0.33-0.9-0.31-1.23,0.04
			c-8.93,9.57-25.02,5.86-31.52,3.82c-9.21-2.89-15.6-6.51-20.11-11.4c-5.68-6.16-7.76-14.44-5.3-21.09
			c2.04-5.52,6.62-9.29,11.48-13.29c1.98-1.63,4.03-3.31,5.86-5.11c7.37-7.23,12.54-17.42,16.26-32.08c0.48-1.9,0.93-3.81,1.38-5.73
			c1.5-6.4,3.05-13.02,5.91-18.99c6.3-13.12,17.82-21.81,30.01-31.01c6.98-5.26,14.2-10.71,20.27-17.03
			c20.86-21.74,27.39-53.55,30.49-75.59c0.17-1.19,0.33-2.38,0.49-3.57c2.14-15.62,4.36-31.77,14.5-43.35
			c6.64-7.58,15.99-14.71,25.63-19.56c0.02-0.01,0.03-0.03,0.04-0.03c5.59,2.13,10.23,4.18,13.81,5.89
			c-6.36,0.94-12.86,3.96-19.37,9.01c-8.53,6.62-15.43,15.3-19.96,25.1c-7.3,15.81-8.25,34.08-9.08,50.2
			c-0.03,0.48,0.34,0.89,0.82,0.91c0.01,0,0.03,0,0.05,0c0.46,0,0.84-0.36,0.87-0.83c0.82-15.96,1.76-34.06,8.92-49.56
			c4.41-9.55,11.14-18,19.45-24.45c7.21-5.59,14.36-8.6,21.27-8.93c3.63,1.83,5.59,3.01,5.65,3.05c0.14,0.09,0.3,0.13,0.45,0.13
			c0.29,0,0.58-0.15,0.74-0.42c0.25-0.41,0.12-0.95-0.29-1.2c-0.02-0.01-0.2-0.12-0.52-0.31c0.17-0.07,0.32-0.18,0.42-0.35
			c2.08-3.63,6.93-4.56,10.44-4.26c7.3,0.63,14.37,5.53,18.46,12.8c3.48,6.18,4.98,14.13,4.34,22.97c-0.57,8-2.72,15.89-4.81,23.53
			c-0.13,0.46,0.15,0.94,0.61,1.07c0.08,0.02,0.15,0.03,0.23,0.03c0.38,0,0.73-0.25,0.84-0.64c2.1-7.72,4.28-15.69,4.86-23.86
			c0.66-9.18-0.92-17.46-4.56-23.95c-4.36-7.76-11.96-13.01-19.82-13.68c-4.03-0.35-9.62,0.79-12.1,5.13
			c-0.1,0.17-0.12,0.37-0.09,0.55c-2.27-1.26-6.75-3.61-13.15-6.37c7.49-2.12,15.19-4.11,23.05-4.02c9.51,0.1,17.77,3.54,22.67,9.42
			c5.65,6.8,6.66,16.31,6.89,24.72c0.25,8.89-0.16,17.88-1.22,26.72c-0.08,0.68-0.17,1.36-0.25,2.04
			c-0.85,6.83-1.73,13.89,0.63,20.43c2.24,6.19,7.01,10.86,11.62,15.38c1.71,1.67,3.48,3.4,5.07,5.18
			c3.82,4.24,10.05,12.8,8.86,22.54c-0.45,3.71-1.91,7.12-3.44,10.72c-1.2,2.81-2.43,5.71-3.14,8.75
			c-1.97,8.44,0.1,18.05,5.82,27.07c5.06,7.96,12.07,14.36,18.85,20.55c0.17,0.15,0.38,0.23,0.59,0.23c0.24,0,0.47-0.1,0.64-0.28
			c0.32-0.36,0.3-0.91-0.06-1.23c-6.7-6.11-13.63-12.44-18.56-20.2c-3.17-4.99-8.11-14.97-5.6-25.74c0.67-2.89,1.88-5.72,3.05-8.46
			c0.58-1.35,1.16-2.72,1.69-4.12c-0.22,0.87-0.43,1.73-0.61,2.61c-2.06,10.02-0.7,19.13,3.83,25.65c3.88,5.6,9.85,9.11,15.61,12.51
			c2.32,1.37,4.72,2.78,6.94,4.31c4.92,3.39,8.72,7.96,10.44,12.51c0.13,0.35,0.46,0.56,0.81,0.56c0.1,0,0.21-0.02,0.31-0.06
			C650.27,1177.78,650.49,1177.28,650.32,1176.83z M605.07,1088.85c-1.63-1.81-3.42-3.56-5.15-5.25
			c-4.48-4.38-9.11-8.92-11.21-14.73c-2.22-6.15-1.37-13-0.54-19.63c0.09-0.68,0.17-1.37,0.25-2.05c1.07-8.92,1.48-18,1.23-26.97
			c-0.25-8.71-1.3-18.58-7.29-25.79c-5.22-6.28-13.96-9.94-23.99-10.05c-8.84-0.1-17.36,2.32-25.62,4.68
			c-3.49-1.45-7.47-2.98-11.88-4.49c12.98-10.88,32.54-13.25,47.73-5.72c15.32,7.58,25.32,24.77,24.32,41.82
			c-0.2,3.37-0.79,6.8-1.37,10.11c-0.84,4.83-1.71,9.82-1.39,14.83c0.79,12.01,8.72,23.93,21.21,31.89c0.45,0.28,0.9,0.57,1.36,0.85
			c3.81,2.38,7.75,4.85,9.02,8.84c1.1,3.45-0.12,7.3-1.35,10.63c-0.8,2.16-1.67,4.34-2.51,6.46c-1.31,3.3-2.64,6.67-3.79,10.11
			c0.11-0.54,0.2-1.08,0.27-1.63C615.64,1102.34,609.09,1093.3,605.07,1088.85z"/>
	</g>
	<g id="XMLID_31_">
		<polygon class="st3" points="538.2,2063.28 528.54,2118.81 579.25,2125.57 569.95,2069.56 		"/>
	</g>
	<g id="XMLID_229_">
		<path class="st4" d="M582,2142.34h-57.1c-1.63,0-2.87-1.45-2.63-3.06l1.15-7.73l4.15-27.81c0.35-2.32,3.27-3.07,4.74-1.24
			c10.39,13.03,17.2,9.1,24.4,2.32c6.17-5.83,11.8-4.24,14.07-3.19c0.66,0.3,1.17,0.86,1.4,1.55l3.95,11.43l5.87,16.96l2.52,7.25
			C585.12,2140.53,583.83,2142.34,582,2142.34z"/>
	</g>
	<g id="XMLID_32_">
		<path class="st3" d="M604.36,2071.49h-34.41v51.67l24.27,14.97l29.46-26.56C623.67,2111.57,607.74,2086.94,604.36,2071.49z"/>
	</g>
	<g id="XMLID_333_">
		<path class="st4" d="M671.2,2137.62v0.13c-0.03,0.93-0.78,1.7-1.74,1.7H567.31c-0.96,0-1.74-0.78-1.74-1.74v-29.94
			c0-1.61,2.03-2.37,3.06-1.13c1.94,2.35,4.15,4.02,6.49,5.07c7.66,3.42,16.77,0.16,22.66-7.76c7.56-10.16,17.94-6.67,20.59-5.55
			c0.41,0.17,0.72,0.5,0.9,0.91c6.91,15.82,21.55,18.53,37.1,19.46c7.46,0.44,11.19,5.1,13.05,9.9c0.63,1.61,1.04,3.24,1.31,4.73
			c0.09,0.49,0.17,0.95,0.23,1.4c0.03,0.24,0.06,0.47,0.09,0.7c0.05,0.44,0.09,0.84,0.11,1.22c0,0.03,0,0.06,0.01,0.09
			C671.18,2137.09,671.19,2137.37,671.2,2137.62z"/>
	</g>
	<g id="XMLID_200_">
		<path class="st2" d="M573.6,2142.34h-48.7c-1.63,0-2.87-1.45-2.63-3.06l1.15-7.73h49.23c0.32,1.61,0.54,3.24,0.68,4.73
			c0.05,0.49,0.09,0.96,0.12,1.4c0.02,0.23,0.03,0.47,0.04,0.7c0.03,0.44,0.04,0.84,0.06,1.22c0,0.03,0,0.06,0.01,0.09
			c0.01,0.33,0.02,0.63,0.03,0.91v0.05C573.61,2141.69,573.6,2142.34,573.6,2142.34z"/>
	</g>
	<g id="XMLID_174_">
		<path class="st2" d="M672.25,2142.34H568.33c-0.96,0-1.74-0.78-1.74-1.74v-9.04h103.83c0.63,1.61,1.04,3.24,1.31,4.73
			c0.09,0.49,0.17,0.96,0.23,1.4c0.03,0.23,0.06,0.47,0.09,0.7c0.04,0.44,0.09,0.84,0.11,1.22c0,0.03,0,0.06,0.01,0.09
			c0.02,0.33,0.03,0.63,0.05,0.91v0.05C672.27,2141.69,672.25,2142.34,672.25,2142.34z"/>
	</g>
	<g id="XMLID_244_">
		<g>
			<path class="st5" d="M669.63,1526.37C669.63,1526.37,669.63,1526.37,669.63,1526.37c-17.54-0.11-30.22-14.78-30.75-15.4
				c-0.47-0.55-0.4-1.37,0.15-1.84c0.55-0.47,1.37-0.4,1.84,0.15c0.12,0.14,12.46,14.38,28.77,14.49c0.72,0.01,1.3,0.59,1.3,1.31
				C670.94,1525.79,670.35,1526.37,669.63,1526.37z"/>
		</g>
	</g>
	<g id="XMLID_10_">
		<g>
			<path class="st6" d="M1083.89,767.2H792.77v-4.35h291.12c19.91,0,36.11-16.2,36.11-36.11V380.88c0-19.91-16.2-36.1-36.11-36.1
				H439.32c-19.91,0-36.11,16.2-36.11,36.1v345.86c0,19.91,16.2,36.11,36.11,36.11h165.42v4.35H439.32
				c-22.31,0-40.46-18.15-40.46-40.46V380.88c0-22.31,18.15-40.46,40.46-40.46h644.57c22.31,0,40.46,18.15,40.46,40.46v345.86
				C1124.34,749.05,1106.2,767.2,1083.89,767.2z"/>
		</g>
	</g>
	<g id="XMLID_70_">
		<path class="st6" d="M1505.2,1909.35h-467.03c-76.54,0-138.58-62.05-138.58-138.58V692.07c0-76.54,62.05-138.58,138.58-138.58
			h467.03c76.54,0,138.58,62.05,138.58,138.58v1078.69C1643.78,1847.3,1581.73,1909.35,1505.2,1909.35z"/>
	</g>
	<g id="XMLID_163_">
		<path class="st7" d="M1623.23,673v1119.02c0,53.01-42.72,96-95.42,96h-512.25c-52.7,0-95.42-42.99-95.42-96V673
			c0-53.01,42.72-96,95.42-96h83.91c18.71,0,36,10.01,45.31,26.24l7.87,13.72c8.93,15.56,25.44,25.16,43.3,25.16h142.48
			c17.86,0,34.37-9.59,43.3-25.16l7.87-13.72c9.31-16.23,26.6-26.24,45.31-26.24h92.91C1580.5,577,1623.23,619.98,1623.23,673z"/>
	</g>
	<g id="XMLID_102_">
		<path class="st8" d="M1781.21,1454.38h-742.16c-24.29,0-43.98-19.69-43.98-43.98v-265.14c0-24.29,19.69-43.98,43.98-43.98h742.16
			c24.29,0,43.98,19.69,43.98,43.98v265.14C1825.19,1434.69,1805.5,1454.38,1781.21,1454.38z"/>
	</g>
	<g>
		<path d="M1732.91,1276.88h-368.22c-1.44,0-2.61-1.17-2.61-2.61s1.17-2.61,2.61-2.61h368.22c1.44,0,2.61,1.17,2.61,2.61
			S1734.36,1276.88,1732.91,1276.88z"/>
	</g>
	<g>
		<path d="M1732.91,1331.72h-368.22c-1.44,0-2.61-1.17-2.61-2.61s1.17-2.61,2.61-2.61h368.22c1.44,0,2.61,1.17,2.61,2.61
			S1734.36,1331.72,1732.91,1331.72z"/>
	</g>
	<g>
		<path d="M1732.91,1386.57h-368.22c-1.44,0-2.61-1.17-2.61-2.61s1.17-2.61,2.61-2.61h368.22c1.44,0,2.61,1.17,2.61,2.61
			S1734.36,1386.57,1732.91,1386.57z"/>
	</g>
	<g id="XMLID_241_">
		<path class="st9" d="M1302.07,1277.83c0,40.23-19.33,75.95-49.22,98.37c-20.54,15.42-46.05,24.54-73.7,24.54
			c-27.65,0-53.16-9.12-73.7-24.54c-29.88-22.42-49.21-58.14-49.21-98.37c0-67.88,55.02-122.92,122.91-122.92
			S1302.07,1209.95,1302.07,1277.83z"/>
	</g>
	<g id="XMLID_113_">
		<path class="st10" d="M1704.66,1179.76l4.77,9.66c0.71,1.45,2.1,2.45,3.69,2.68l10.66,1.55c4.02,0.58,5.63,5.53,2.72,8.36
			l-7.71,7.52c-1.16,1.13-1.68,2.75-1.41,4.34l1.82,10.62c0.69,4.01-3.52,7.06-7.12,5.17l-9.54-5.01c-1.43-0.75-3.14-0.75-4.56,0
			l-9.54,5.01c-3.6,1.89-7.8-1.16-7.12-5.17l1.82-10.62c0.27-1.59-0.25-3.21-1.41-4.34l-7.71-7.52c-2.91-2.84-1.3-7.78,2.72-8.36
			l10.66-1.55c1.6-0.23,2.98-1.24,3.69-2.68l4.77-9.66C1697.66,1176.12,1702.86,1176.12,1704.66,1179.76z"/>
	</g>
	<g id="XMLID_107_">
		<path class="st10" d="M1628.12,1179.76l4.77,9.66c0.71,1.45,2.1,2.45,3.69,2.68l10.66,1.55c4.02,0.58,5.63,5.53,2.72,8.36
			l-7.71,7.52c-1.16,1.13-1.68,2.75-1.41,4.34l1.82,10.62c0.69,4.01-3.52,7.06-7.12,5.17l-9.54-5.01c-1.43-0.75-3.14-0.75-4.56,0
			l-9.54,5.01c-3.6,1.89-7.8-1.16-7.12-5.17l1.82-10.62c0.27-1.59-0.25-3.21-1.41-4.34l-7.71-7.52c-2.91-2.84-1.3-7.78,2.72-8.36
			l10.66-1.55c1.6-0.23,2.98-1.24,3.69-2.68l4.77-9.66C1621.12,1176.12,1626.32,1176.12,1628.12,1179.76z"/>
	</g>
	<g id="XMLID_106_">
		<path class="st10" d="M1551.57,1179.76l4.77,9.66c0.71,1.45,2.1,2.45,3.69,2.68l10.66,1.55c4.02,0.58,5.63,5.53,2.72,8.36
			l-7.71,7.52c-1.16,1.13-1.68,2.75-1.41,4.34l1.82,10.62c0.69,4.01-3.52,7.06-7.12,5.17l-9.54-5.01c-1.43-0.75-3.14-0.75-4.56,0
			l-9.54,5.01c-3.6,1.89-7.8-1.16-7.12-5.17l1.82-10.62c0.27-1.59-0.25-3.21-1.41-4.34l-7.71-7.52c-2.91-2.84-1.3-7.78,2.72-8.36
			l10.66-1.55c1.6-0.23,2.98-1.24,3.69-2.68l4.77-9.66C1544.57,1176.12,1549.77,1176.12,1551.57,1179.76z"/>
	</g>
	<g id="XMLID_105_">
		<path class="st10" d="M1475.03,1179.76l4.77,9.66c0.71,1.45,2.1,2.45,3.69,2.68l10.66,1.55c4.02,0.58,5.63,5.53,2.72,8.36
			l-7.71,7.52c-1.16,1.13-1.68,2.75-1.41,4.34l1.82,10.62c0.69,4.01-3.52,7.06-7.12,5.17l-9.54-5.01c-1.43-0.75-3.14-0.75-4.56,0
			l-9.54,5.01c-3.6,1.89-7.8-1.16-7.12-5.17l1.82-10.62c0.27-1.59-0.25-3.21-1.41-4.34l-7.71-7.52c-2.91-2.84-1.3-7.78,2.72-8.36
			l10.66-1.55c1.6-0.23,2.98-1.24,3.69-2.68l4.77-9.66C1468.03,1176.12,1473.23,1176.12,1475.03,1179.76z"/>
	</g>
	<g id="XMLID_104_">
		<path class="st10" d="M1398.48,1179.76l4.77,9.66c0.71,1.45,2.1,2.45,3.69,2.68l10.66,1.55c4.02,0.58,5.63,5.53,2.72,8.36
			l-7.71,7.52c-1.16,1.13-1.68,2.75-1.41,4.34l1.82,10.62c0.69,4.01-3.52,7.06-7.12,5.17l-9.54-5.01c-1.43-0.75-3.14-0.75-4.56,0
			l-9.54,5.01c-3.6,1.89-7.8-1.16-7.12-5.17l1.82-10.62c0.27-1.59-0.25-3.21-1.41-4.34l-7.71-7.52c-2.91-2.84-1.3-7.78,2.72-8.36
			l10.66-1.55c1.6-0.23,2.98-1.24,3.69-2.68l4.77-9.66C1391.48,1176.12,1396.68,1176.12,1398.48,1179.76z"/>
	</g>
	<g>
		<path class="st11" d="M1234.76,1236.04c-7.69-10.25-37-32.39-50.74-53.82c-5.97-9.31-43.86,16.91-40.9,26.14
			c0.71,2.19,3.02,5.15,6.32,8.39c-13.4,7.91-29.87,21.26-21.89,36c12.74,23.52,18.02,26.37,19.05,29.23
			c0.66,1.83-3.6-19.01,5.63-34.24c0.44-0.73,0.92-1.45,1.42-2.15c3.91-5.41,9.81-9.86,18.6-11.93c7.53,4.35,15.06,7.6,20.62,8.18
			c20.96,2.19,15.52,18.38,15.52,28.01c0,9.08,0.98,10.22,0.98,10.22S1242.45,1246.29,1234.76,1236.04z"/>
	</g>
	<g id="XMLID_210_">
		<polygon class="st12" points="1163.71,1318.97 1163.71,1336.27 1192.89,1336.27 1192.89,1313.86 		"/>
	</g>
	<g id="XMLID_169_">
		<path class="st13" d="M1252.86,1376.2c-20.54,15.42-46.05,24.54-73.7,24.54c-27.65,0-53.16-9.12-73.7-24.54
			c15.95-23.68,43.01-39.25,73.71-39.25S1236.92,1352.52,1252.86,1376.2z"/>
	</g>
	<g id="XMLID_192_">
		<rect x="1155.93" y="1329.26" class="st13" width="46.03" height="14.01"/>
	</g>
	<g id="XMLID_97_">
		<g id="XMLID_00000099648068587893397340000007421527499556993943_">
			<g>
				<path class="st14" d="M868.29,1040.98c-1.54-1.16-3.13-2.3-4.75-3.47c-1.88-1.36-3.83-2.76-5.79-4.24l2.62-3.47
					c1.92,1.45,3.85,2.84,5.71,4.19c1.64,1.18,3.25,2.34,4.82,3.52L868.29,1040.98z"/>
			</g>
		</g>
		<g id="XMLID_00000007406062266477256280000006955539262734753927_">
			<g>
				<path class="st14" d="M836.08,1019.8l-6.51-3.26l-0.25-0.25c-1.67-1.67-3.12-3.12-5.24-3.83l-0.31-0.13
					c-2.57-1.33-5.12-2.66-7.65-3.98l-2.53-1.32l2.01-3.86l2.53,1.32c2.49,1.29,4.98,2.6,7.5,3.9c2.86,1,4.82,2.87,6.53,4.57
					l5.88,2.94L836.08,1019.8z M790.47,995.36c-8.64-4.14-16.39-7.46-23.67-10.15l1.51-4.08c7.41,2.74,15.28,6.12,24.04,10.31
					L790.47,995.36z M742.19,976.71c-7.57-3.2-15.48-6.13-24.17-8.97l1.35-4.14c8.8,2.88,16.82,5.86,24.51,9.1L742.19,976.71z
					 M693.23,960.44c-8.52-2.28-17.11-4.4-25.12-6.35l1.03-4.23c8.04,1.96,16.66,4.08,25.22,6.38L693.23,960.44z M643.04,947.26
					c-8.15-2.08-16.63-4.03-25.21-5.79l0.88-4.26c8.64,1.78,17.19,3.75,25.4,5.84L643.04,947.26z M592.38,936.75
					c-8.03-1.34-16.41-2.6-25.61-3.86l0.59-4.31c9.25,1.27,17.66,2.54,25.74,3.88L592.38,936.75z M541.04,929.55
					c-8.18-1.03-16.61-2.04-25.76-3.09l0.5-4.32c9.17,1.06,17.61,2.07,25.8,3.1L541.04,929.55z M489.49,923.58
					c-8.61-0.94-17.21-1.85-25.81-2.77l0.46-4.33c8.61,0.91,17.22,1.83,25.83,2.77L489.49,923.58z M437.85,918.07
					c-8.59-0.92-17.19-1.84-25.82-2.8l0.48-4.33c8.63,0.95,17.23,1.88,25.81,2.8L437.85,918.07z M386.39,909.72
					c-9.67-2.29-17.69-4.4-25.23-6.64l1.24-4.17c7.46,2.21,15.4,4.31,24.99,6.58L386.39,909.72z M336.44,894.54
					c-8.5-3.43-16.24-7.11-23.67-11.28l2.13-3.8c7.26,4.07,14.84,7.68,23.17,11.04L336.44,894.54z M290.08,870.4
					c-7.4-4.95-14.45-10.24-20.94-15.74l2.81-3.32c6.37,5.39,13.28,10.59,20.55,15.44L290.08,870.4z M250.2,836.53
					c-4.49-4.86-8.87-10.06-13.01-15.44l-0.06-0.09c-1.14-1.65-2.27-3.3-3.37-4.96l3.62-2.41c1.08,1.62,2.18,3.24,3.3,4.85
					c4.06,5.27,8.34,10.35,12.73,15.1L250.2,836.53z M220.59,793.33c-1.34-2.8-2.59-5.64-3.72-8.45
					c-1.91-5.25-3.86-10.62-5.64-16.06l4.14-1.35c1.76,5.37,3.7,10.7,5.57,15.86c1.06,2.65,2.27,5.41,3.58,8.12L220.59,793.33z
					 M205.36,743.43c-1.61-7.57-2.36-15.58-2.36-25.21l0-1.07l4.35,0.03l0,1.04c0,9.32,0.72,17.04,2.27,24.31L205.36,743.43z
					 M208.72,691.54l-4.31-0.57c1.15-8.63,3.26-17.05,5.5-25.64l4.21,1.1C211.91,674.88,209.84,683.16,208.72,691.54z
					 M221.95,641.89l-4.1-1.46c0.99-2.79,1.76-4.91,2.49-6.85l0.09-0.21c1.95-3.91,3.69-7.76,5.37-11.48
					c0.82-1.81,1.63-3.62,2.47-5.43l3.95,1.83c-0.83,1.8-1.64,3.59-2.46,5.39c-1.68,3.73-3.42,7.59-5.39,11.54
					C223.66,637.1,222.91,639.17,221.95,641.89z M244.68,595.86l-3.67-2.34c5.09-7.98,10-14.98,15.03-21.42l3.43,2.68
					C254.53,581.11,249.69,588,244.68,595.86z M276.53,555.62l-3.05-3.11c2.72-2.66,5.55-5.27,8.41-7.74l0.07-0.06
					c1.66-1.31,3.3-2.62,4.95-3.92c2.19-1.74,4.38-3.47,6.56-5.19l2.69,3.42c-2.18,1.72-4.36,3.44-6.55,5.18
					c-1.63,1.3-3.27,2.6-4.92,3.9C281.92,550.5,279.17,553.03,276.53,555.62z M316.91,523.69l-2.43-3.61
					c6.63-4.45,12.91-8.15,19.21-11.29c1.13-0.6,2.3-1.22,3.47-1.82l1.99,3.87c-1.15,0.59-2.3,1.2-3.47,1.82
					C329.51,515.74,323.39,519.35,316.91,523.69z M362.57,500.07l-1.65-4.03c3.78-1.55,7.76-3.11,12.16-4.76
					c4-1.34,8.16-2.48,12.78-3.53l0.96,4.24c-4.48,1.02-8.51,2.13-12.3,3.39C370.24,496.99,366.31,498.53,362.57,500.07z
					 M412.13,487.98l-0.34-4.34c7.22-0.56,16.65-1.2,25.6-1.2l0.65,0.04l-0.28,4.34l-0.44-0.03
					C428.54,486.8,419.25,487.43,412.13,487.98z"/>
			</g>
		</g>
		<g id="XMLID_00000170970172467625594160000017597513986660714408_">
			<g>
				<path class="st14" d="M476.32,491.27c-4.02-0.84-8.17-1.55-12.71-2.15l0.57-4.32c4.65,0.62,8.91,1.34,13.04,2.2L476.32,491.27z"
					/>
			</g>
		</g>
	</g>
	<g id="XMLID_158_">
		<path class="st15" d="M510.49,1069.52c0,0-14.93,17.47-23.87,42.6c-8.39,23.6-37.19,41.27-53.06,48.3
			c-12.11,5.37-54.06,48.59-27.8,103.16c7.9,16.42,79.89,92.63,136.29,61.89c37.69-20.54,68.42-150.43,68.42-150.43
			s-16.32-31.96-9.83-46.41c8.45-18.82,2.88-23.89-10.14-40.63C573.42,1066.02,520.63,1053.33,510.49,1069.52z"/>
	</g>
	<g>
		<path class="st2" d="M663.39,1463.82c-37.94-37.41-80.49-3.08-93.78,9.58l-113.73,35.91c0,0-5.48,39.35,0,86.18
			c5.15,44,20.94,94.59,31.34,125.35c22.32,66,29.21,87.47,30.33,145.36c0.47,24.5,9.63,67.4,20.05,108.75l-11,95.27
			c-0.67,5.78,3.85,10.85,9.67,10.85h30.92c0.73,2.4,1.13,3.7,1.13,3.7l35.52-1.1c5.7-0.18,10.06-5.15,9.46-10.83
			c-1.71-16.41-5.12-50.17-8.25-87.54c10.89-36.84,24.46-86,40.54-150.28C692.34,1647.99,663.39,1463.82,663.39,1463.82z"/>
	</g>
	<g id="XMLID_156_">
		<g>
			<path class="st5" d="M568.31,2086.08c-0.56,0-1.07-0.36-1.25-0.92c-0.17-0.56-17.37-56.33-31.59-113.3
				c-0.17-0.7,0.25-1.41,0.95-1.58c0.7-0.17,1.41,0.25,1.58,0.95c14.2,56.9,31.38,112.6,31.55,113.16c0.21,0.69-0.17,1.42-0.86,1.63
				C568.57,2086.06,568.44,2086.08,568.31,2086.08z"/>
		</g>
	</g>
	<g id="XMLID_54_">
		<polygon class="st16" points="1944.74,2065.05 1921.34,2102.04 1989.29,2113.36 2005.9,2099.02 2002.12,2055.85 		"/>
	</g>
	<path class="st17" d="M680.05,1473.88l-46.54-242.03l-5.76-71.43l-88.84-15.36l-28.04,2.94l-23.17,12.42l-59.47,28.48
		c0,0,24.74,80.35,33.47,130.82c8.73,50.47-1.82,164.62-6.61,179.97c-1.02,3.26-1.91,6.04-2.67,8.4c-1.95,5.98,2.24,12.2,8.52,12.66
		l104.39,7.59c8.54,0.62,16.19-5.25,17.79-13.66l8.18-42.8l19.29,34.59c4.71,8.44,15.37,11.46,23.8,6.73l37.04-20.77
		C678,1488.74,681.47,1481.27,680.05,1473.88z"/>
	<g id="XMLID_139_">
		<path class="st5" d="M292.79,2138.94h1995.44c4.84,0,8.77,3.93,8.77,8.77v3.1c0,4.84-3.93,8.77-8.77,8.77H292.79
			c-4.84,0-8.77-3.93-8.77-8.77v-3.1C284.02,2142.87,287.95,2138.94,292.79,2138.94z"/>
	</g>
	<polygon class="st7" points="500.24,483.09 537.58,579.02 658.6,500.64 	"/>
	<polygon class="st14" points="495.08,497.46 465.24,568.75 658.6,500.64 	"/>
	<g id="XMLID_60_">
		<path class="st0" d="M1520.31,1816.09h-481.25c-24.29,0-43.98-19.69-43.98-43.98v-154.17c0-24.29,19.69-43.98,43.98-43.98h481.25
			c24.29,0,43.98,19.69,43.98,43.98v154.17C1564.28,1796.4,1544.6,1816.09,1520.31,1816.09z"/>
	</g>
	<g id="XMLID_86_">
		<path class="st4" d="M1487.66,1727.48l3.07,6.22c0.52,1.04,1.51,1.77,2.66,1.94l6.87,1c2.9,0.42,4.06,3.99,1.96,6.03l-4.97,4.85
			c-0.83,0.81-1.21,1.98-1.02,3.13l1.17,6.84c0.5,2.89-2.54,5.09-5.13,3.73l-6.14-3.23c-1.03-0.54-2.26-0.54-3.29,0l-6.14,3.23
			c-2.6,1.36-5.63-0.84-5.13-3.73l1.17-6.84c0.2-1.15-0.18-2.32-1.02-3.13l-4.97-4.85c-2.1-2.05-0.94-5.61,1.96-6.03l6.87-1
			c1.15-0.17,2.15-0.89,2.66-1.94l3.07-6.22C1482.61,1724.85,1486.36,1724.85,1487.66,1727.48z"/>
	</g>
	<g id="XMLID_57_">
		<g>
			<path d="M1053.58,1623.05v-3.92h20.57v3.92h-8.37v36.1h-3.83v-36.1H1053.58z"/>
		</g>
		<g>
			<path d="M1081.21,1629.55h3.78l9.54,22.79l9.27-22.79h3.8l-16.56,40.42h-3.77l5.34-13.07L1081.21,1629.55z"/>
		</g>
		<g>
			<path d="M1117.49,1629.55h3.57v5.44c1.41-2.07,3.03-3.62,4.87-4.65c1.84-1.03,3.88-1.55,6.14-1.55c3.94,0,7.32,1.51,10.12,4.54
				c2.8,3.03,4.21,6.67,4.21,10.94c0,4.35-1.39,8.05-4.17,11.09c-2.78,3.04-6.13,4.56-10.06,4.56c-2.21,0-4.24-0.49-6.09-1.47
				s-3.53-2.44-5.02-4.38v15.91h-3.57V1629.55z M1131.78,1632.46c-3.09,0-5.69,1.15-7.8,3.45c-2.11,2.3-3.17,5.16-3.17,8.59
				c0,2.25,0.47,4.27,1.41,6.06c0.94,1.79,2.29,3.22,4.05,4.27s3.61,1.58,5.56,1.58c1.92,0,3.72-0.53,5.41-1.59
				c1.69-1.06,3.03-2.54,4.04-4.44c1-1.9,1.5-3.89,1.5-5.98c0-2.1-0.5-4.09-1.49-5.98c-0.99-1.88-2.33-3.35-4.01-4.39
				C1135.6,1632.98,1133.77,1632.46,1131.78,1632.46z"/>
		</g>
		<g>
			<path d="M1181.69,1649.33l3.01,1.69c-0.99,2.07-2.13,3.74-3.42,5.01c-1.29,1.27-2.75,2.24-4.37,2.9
				c-1.62,0.66-3.45,0.99-5.49,0.99c-4.53,0-8.07-1.58-10.62-4.75c-2.55-3.16-3.83-6.74-3.83-10.73c0-3.75,1.08-7.1,3.24-10.04
				c2.74-3.74,6.41-5.6,11.01-5.6c4.73,0,8.51,1.91,11.34,5.74c2.01,2.7,3.03,6.08,3.07,10.12h-24.98c0.07,3.44,1.1,6.26,3.09,8.45
				c1.99,2.2,4.45,3.3,7.38,3.3c1.41,0,2.79-0.26,4.13-0.79c1.34-0.52,2.47-1.22,3.41-2.09
				C1179.59,1652.66,1180.6,1651.26,1181.69,1649.33z M1181.69,1641.36c-0.48-2.03-1.17-3.65-2.08-4.87
				c-0.91-1.21-2.12-2.19-3.62-2.94c-1.5-0.74-3.07-1.12-4.73-1.12c-2.73,0-5.07,0.93-7.03,2.8c-1.43,1.36-2.51,3.4-3.24,6.12
				H1181.69z"/>
		</g>
		<g>
			<path d="M1217.21,1618.12h3.57v16.73c1.45-2.03,3.04-3.55,4.77-4.56c1.73-1.01,3.61-1.51,5.64-1.51c2.08,0,3.92,0.56,5.52,1.69
				c1.61,1.12,2.79,2.63,3.56,4.53c0.77,1.9,1.15,4.87,1.15,8.91v15.23h-3.57v-14.12c0-3.41-0.13-5.69-0.38-6.83
				c-0.44-1.96-1.25-3.43-2.41-4.42c-1.17-0.99-2.69-1.48-4.58-1.48c-2.16,0-4.1,0.76-5.81,2.29c-1.71,1.52-2.84,3.41-3.38,5.66
				c-0.34,1.45-0.51,4.13-0.51,8.05v10.85h-3.57V1618.12z"/>
		</g>
		<g>
			<path d="M1277.68,1649.33l3.01,1.69c-0.99,2.07-2.13,3.74-3.42,5.01c-1.29,1.27-2.75,2.24-4.37,2.9
				c-1.62,0.66-3.45,0.99-5.49,0.99c-4.53,0-8.07-1.58-10.63-4.75c-2.55-3.16-3.83-6.74-3.83-10.73c0-3.75,1.08-7.1,3.24-10.04
				c2.74-3.74,6.41-5.6,11.01-5.6c4.73,0,8.51,1.91,11.34,5.74c2.01,2.7,3.03,6.08,3.06,10.12h-24.98c0.07,3.44,1.1,6.26,3.09,8.45
				s4.45,3.3,7.38,3.3c1.41,0,2.79-0.26,4.13-0.79c1.34-0.52,2.47-1.22,3.41-2.09C1275.58,1652.66,1276.59,1651.26,1277.68,1649.33z
				 M1277.68,1641.36c-0.48-2.03-1.17-3.65-2.08-4.87c-0.91-1.21-2.12-2.19-3.62-2.94c-1.5-0.74-3.07-1.12-4.73-1.12
				c-2.73,0-5.07,0.93-7.03,2.8c-1.43,1.36-2.51,3.4-3.24,6.12H1277.68z"/>
		</g>
		<g>
			<path d="M1292.14,1629.55h3.65v4.33c1.09-1.7,2.24-2.98,3.45-3.82c1.21-0.84,2.47-1.27,3.78-1.27c0.99,0,2.04,0.34,3.16,1.01
				l-1.86,3.21c-0.75-0.34-1.38-0.52-1.89-0.52c-1.19,0-2.34,0.52-3.44,1.56c-1.11,1.04-1.95,2.66-2.53,4.86
				c-0.44,1.69-0.66,5.1-0.66,10.23v10.01h-3.65V1629.55z"/>
		</g>
		<g>
			<path d="M1337.82,1649.33l3.01,1.69c-0.99,2.07-2.13,3.74-3.42,5.01c-1.29,1.27-2.75,2.24-4.37,2.9
				c-1.62,0.66-3.45,0.99-5.49,0.99c-4.53,0-8.07-1.58-10.63-4.75c-2.55-3.16-3.83-6.74-3.83-10.73c0-3.75,1.08-7.1,3.24-10.04
				c2.74-3.74,6.41-5.6,11.01-5.6c4.73,0,8.51,1.91,11.34,5.74c2.01,2.7,3.03,6.08,3.06,10.12h-24.98c0.07,3.44,1.1,6.26,3.09,8.45
				s4.45,3.3,7.38,3.3c1.41,0,2.79-0.26,4.13-0.79c1.34-0.52,2.47-1.22,3.41-2.09C1335.71,1652.66,1336.73,1651.26,1337.82,1649.33z
				 M1337.82,1641.36c-0.48-2.03-1.17-3.65-2.08-4.87c-0.91-1.21-2.12-2.19-3.62-2.94c-1.5-0.74-3.07-1.12-4.73-1.12
				c-2.73,0-5.07,0.93-7.03,2.8c-1.43,1.36-2.51,3.4-3.24,6.12H1337.82z"/>
		</g>
		<g>
			<path d="M1357.56,1653.16c0.87,0,1.61,0.33,2.22,0.98c0.61,0.65,0.92,1.45,0.92,2.39c0,0.92-0.31,1.72-0.92,2.38
				c-0.61,0.66-1.35,0.99-2.22,0.99c-0.87,0-1.61-0.33-2.22-0.99c-0.61-0.66-0.92-1.46-0.92-2.38c0-0.94,0.31-1.74,0.92-2.39
				C1355.96,1653.49,1356.69,1653.16,1357.56,1653.16z"/>
		</g>
		<g>
			<path d="M1377.26,1653.16c0.87,0,1.61,0.33,2.22,0.98c0.61,0.65,0.92,1.45,0.92,2.39c0,0.92-0.31,1.72-0.92,2.38
				c-0.61,0.66-1.35,0.99-2.22,0.99c-0.87,0-1.61-0.33-2.22-0.99c-0.61-0.66-0.92-1.46-0.92-2.38c0-0.94,0.31-1.74,0.92-2.39
				C1375.65,1653.49,1376.39,1653.16,1377.26,1653.16z"/>
		</g>
		<g>
			<path d="M1396.95,1653.16c0.87,0,1.61,0.33,2.22,0.98c0.61,0.65,0.92,1.45,0.92,2.39c0,0.92-0.31,1.72-0.92,2.38
				c-0.61,0.66-1.35,0.99-2.22,0.99c-0.87,0-1.61-0.33-2.22-0.99c-0.61-0.66-0.92-1.46-0.92-2.38c0-0.94,0.31-1.74,0.92-2.39
				C1395.35,1653.49,1396.09,1653.16,1396.95,1653.16z"/>
		</g>
	</g>
	<g id="XMLID_65_">
		<circle class="st0" cx="1328.44" cy="606.9" r="17.81"/>
	</g>
	<g id="XMLID_62_">
		<g>
			<path class="st4" d="M699.91,897.32c-55.93,0-101.44-45.5-101.44-101.44c0-55.93,45.5-101.44,101.44-101.44
				c55.93,0,101.44,45.5,101.44,101.44C801.35,851.82,755.84,897.32,699.91,897.32z M699.91,698.8c-53.53,0-97.09,43.55-97.09,97.09
				s43.55,97.09,97.09,97.09c53.53,0,97.09-43.55,97.09-97.09S753.44,698.8,699.91,698.8z"/>
		</g>
	</g>
	<g id="XMLID_67_">
		<path class="st0" d="M1285.67,618.74h-88.31c-2.78,0-5.03-2.25-5.03-5.03v-1.78c0-2.78,2.25-5.03,5.03-5.03h88.31
			c2.78,0,5.03,2.25,5.03,5.03v1.78C1290.7,616.49,1288.44,618.74,1285.67,618.74z"/>
	</g>
	<g id="XMLID_50_">
		<polygon class="st16" points="2104.05,2061.27 2104.05,2105.81 2169.87,2095.25 2169.87,2061.27 		"/>
	</g>
	<path class="st0" d="M596.9,1203.16c-6.12-24.78-21.93-51.71-21.93-51.71l-15.46-2.67c0,0,4.59,13.25,9.87,30.26
		s0.77,28.14,0.77,28.14s11.52,1.55,17.74,3.89C592.98,1212.98,598.2,1208.44,596.9,1203.16z"/>
	<g id="XMLID_122_">
		<path class="st0" d="M486.48,1161.01c0,0,2.09,75.8,22.45,81.14c11.24,2.95,18.98-19.04,34.51-31.12c15.53-12.07,0,0,0,0
			L510.88,1148l-23.17,12.42L486.48,1161.01z"/>
	</g>
	<g id="XMLID_23_">
		<path class="st17" d="M672.9,1266.68c0,0-24.55-82.7-30.15-92.61c-5.6-9.91-15.94-19.1-37.48-13.64
			c-21.54,5.46,29.29,149.76,29.29,149.76L672.9,1266.68z"/>
	</g>
	<g id="XMLID_7_">
		<path class="st17" d="M417.68,1351.01c0,0,53.86-119.63,51.39-139.35c-2.47-19.72-25.86-47.34-51.39-9.86
			c0,0-61.04,91.9-69.91,135.45s-12.82,60.31,37.97,78.06s50.79,17.75,50.79,17.75l32.63-61.64L417.68,1351.01z"/>
	</g>
	<g id="XMLID_98_">
		<polygon class="st14" points="520.9,430.99 500.24,483.09 658.6,500.64 		"/>
	</g>
	<path class="st4" d="M754.86,761.34c-28.08-28.08-52.95,6.51-54.95,9.51c-2-3-26.87-37.59-54.95-9.51
		c-32.15,32.15,54.95,89.87,54.95,89.87S787.01,793.48,754.86,761.34z"/>
	<g>
		<path class="st18" d="M769.17,1376.14l-0.36-5.13l-6.98-98.72c-1.38-19.56-18.37-34.3-37.93-32.92l-175.61,12.42
			c-19.56,1.38-34.3,18.37-32.92,37.93l7.35,103.84c1.38,19.56,18.37,34.3,37.93,32.92l140.47-9.94l30.93,20.66
			c2.86,1.91,6.14-0.85,5.86-4.92l-1.29-18.26C756,1412.46,770.55,1395.58,769.17,1376.14z"/>
	</g>
	<g id="XMLID_28_">
		<path class="st3" d="M780.82,1266.91c-6.56-2.27-34.88,15.4-35.19,18.23c-0.31,2.83-0.94,6.91,5.34,6.28c0,0-11,5.97-2.2,10.06
			h5.97c0,0-13.51,5.66-4.71,11.63h5.34c0,0-10.37,7.23-1.26,11.63c9.11,4.4,26.3,0.01,29.85-1.89
			C793.31,1317.86,787.79,1269.32,780.82,1266.91z"/>
	</g>
	<g id="XMLID_53_">
		<path class="st19" d="M2009.35,2096.28v37.76c0,2.85-2.31,5.17-5.17,5.17h-147.41c-2.38,0-4.46-1.63-5.02-3.94
			c-2.28-9.38-4.76-32.27,25.23-32.7c37.74-0.55,30.29-2,41.02-7.11c10.73-5.11,18.75-20.6,43.21-1.64
			c15.6,12.09,30.87,5.02,39.89-1.68C2004.52,2089.59,2009.35,2092.03,2009.35,2096.28z"/>
	</g>
	<g id="XMLID_55_">
		<path class="st19" d="M2099.05,2097.13v37.33c0,2.62,2.12,4.74,4.74,4.74h108.4c2.6,0,4.7-2.08,4.74-4.68
			c0.14-9.19-1.83-28.73-21.07-28.71c-25.16,0.02-5.85-29.78-37.87-31.15c-30.94-1.33-29.88,28.67-52.15,18.2
			C2102.69,2091.38,2099.05,2093.64,2099.05,2097.13z"/>
	</g>
	<g id="XMLID_272_">
		<path class="st3" d="M626.25,1437.8c-2.05,1.45-3.33,2.37-4.09,2.92c0,0,2.63,2.05-2.63,5.85c-5.26,3.8-32.43,17.82-42.95,17.24
			c-10.52-0.58-16.95-6.72-28.05-8.18c-7.91-1.04-46.48-9.34-68.03-14.03c-0.05-0.01-0.11-0.03-0.17-0.03
			c-7.25-1.58-12.54-2.74-14.05-3.06c-0.3-0.07-0.44-0.1-0.44-0.1l22.46-44.53c0,0,0.96,0.59,2.6,1.56
			c3.09,1.83,8.62,5.01,14.76,8.15c1.24,0.64,2.49,1.26,3.76,1.88c6.4,3.12,13.07,5.9,18.08,6.9c13.55,2.72,9.1,0.64,16.77-5.42
			c8.37-6.62,13.26-8.37,29.09-11.59c14.45-2.94,16.35,4.64,14.87,6.86c-1.03,1.55-11.76,6.58-18.11,9.46
			c-1.6,0.73-1.44,3.06,0.26,3.54c9.31,2.67,29.22,7.87,36.29,5.66c9.35-2.92,15.99-6.62,19.89-3.89c5.41,3.78-2.24,9.8-2.6,10.08
			c0.31-0.19,6.69-4.2,8.71-1.81C634.71,1427.64,634.43,1431.95,626.25,1437.8z"/>
	</g>
	<g id="XMLID_203_">
		<path class="st3" d="M565.22,1231.85c0,0,0,0-19.15-18.12S510.87,1148,510.87,1148s0,0,2.07-7.76c0.95-3.54-0.48-14.53-2.32-25.43
			c-0.1-0.63-0.21-1.24-0.31-1.87c-0.37-2.12-0.75-4.23-1.12-6.26c-0.69-3.75-1.37-7.23-1.94-10.11c-0.03-0.16-0.06-0.31-0.09-0.47
			c0-0.01,0-0.02-0.01-0.02c-0.01-0.04-0.02-0.1-0.03-0.14c-0.43-2.12-0.78-3.86-1.03-5.07c-0.03-0.13-0.05-0.26-0.08-0.38
			c-0.21-0.97-0.32-1.5-0.32-1.5l0.07,0.03l3.06,1.06l34.13,11.86c0,0,0.33,0.85,0.92,2.38c0.46,1.21,1.09,2.84,1.84,4.81
			c1,2.64,2.23,5.88,3.6,9.53c0.11,0.3,0.24,0.62,0.35,0.93c0.54,1.43,1.1,2.91,1.66,4.44c0.77,2.05,1.56,4.2,2.38,6.4
			c1.51,4.09,3.08,8.38,4.64,12.69c5.4,15.01,10.61,30.3,12.56,38.54C575.58,1201.31,565.22,1231.85,565.22,1231.85z"/>
	</g>
	<g id="XMLID_124_">
		<path class="st3" d="M550.34,998.23c0,0,41.64-0.12,28.12,75.61c-13.52,75.73-47.86,38.29-78.11,11.87c0,0-17.61,1.91-26.04-6.51
			c-8.42-8.42-1.53-31.94,20.29-20.76c0,0,3.8-10.26,11.09-11.41c7.29-1.15,7.01-5.38,10.5-19.91
			C520.11,1010.88,551.31,1016.81,550.34,998.23z"/>
	</g>
	<g id="XMLID_128_" class="st20">
		<path class="st21" d="M540.91,1034.75c0.06-1-0.99-1.67-2.31-1.66c-3.75,0.03-12.85,0.19-15.51,1.06
			c-3.39,1.11-4.96,4.88,0.84,4.93C529,1039.13,540.71,1038.25,540.91,1034.75z"/>
	</g>
	<g id="XMLID_130_" class="st20">
		<path class="st21" d="M555.88,1035.28c0.01,0.86,0.89,1.42,1.95,1.4c3.02-0.07,10.32-0.31,12.42-1.1
			c2.66-0.99,3.72-4.25-0.95-4.23C565.21,1031.37,555.85,1032.27,555.88,1035.28z"/>
	</g>
	<g id="XMLID_129_">
		<g>
			<path d="M549.97,1094.31c-5.91,0-14.72-9.34-15.73-10.44c-0.49-0.53-0.46-1.36,0.07-1.84c0.53-0.49,1.35-0.46,1.85,0.07
				c3.58,3.87,10.56,9.89,14.05,9.59c0.67-0.06,1.13-0.35,1.51-0.93c0.39-0.61,1.2-0.78,1.8-0.39c0.61,0.39,0.78,1.2,0.39,1.8
				c-0.81,1.26-2.01,1.99-3.48,2.12C550.28,1094.3,550.13,1094.31,549.97,1094.31z"/>
		</g>
	</g>
	<g id="XMLID_127_">
		<ellipse transform="matrix(0.9924 -0.1233 0.1233 0.9924 -125.714 74.2531)" cx="536.97" cy="1052.67" rx="3.83" ry="5.67"/>
	</g>
	<g id="XMLID_14_">
		<ellipse transform="matrix(0.9924 -0.1233 0.1233 0.9924 -125.0237 77.5945)" cx="564.31" cy="1048.76" rx="3.83" ry="5.67"/>
	</g>
	<g id="XMLID_125_">
		<g>
			<path d="M555.69,1077.65c-0.14,0-0.28,0-0.43-0.01c-0.72-0.04-1.27-0.66-1.23-1.38c0.04-0.72,0.67-1.26,1.38-1.23
				c1.47,0.08,1.99-0.47,2.26-0.89c2.62-4.07-3.81-19.66-8.48-28.53c-0.34-0.64-0.09-1.43,0.55-1.76c0.64-0.34,1.43-0.09,1.76,0.55
				c1.31,2.49,12.67,24.48,8.37,31.16C559.24,1076.53,558.01,1077.65,555.69,1077.65z"/>
		</g>
	</g>
	<g>
		<path d="M495.87,1075.8c-0.24-0.34-6-8.27-13.92-7.54c-0.72,0.07-1.25,0.7-1.18,1.42c0.07,0.72,0.7,1.25,1.42,1.18
			c1.28-0.12,2.51,0.08,3.66,0.45c-1.88,0.8-3.33,2.02-3.59,2.24c-0.55,0.47-0.61,1.29-0.14,1.84c0.26,0.3,0.62,0.45,0.99,0.45
			c0.3,0,0.6-0.1,0.85-0.32c0.92-0.79,3.67-2.68,5.63-2.27c2.53,1.83,4.13,4.02,4.16,4.06c0.26,0.35,0.66,0.54,1.06,0.54
			c0.26,0,0.53-0.08,0.76-0.24C496.15,1077.2,496.29,1076.39,495.87,1075.8z"/>
	</g>
	<g id="XMLID_141_">
		<path d="M549.68,1119.58c-10.81,0.96-26.66,0.64-39.36-6.64c-0.37-2.12-0.75-4.23-1.12-6.26c-0.69-3.75-1.37-7.23-1.94-10.11
			c-0.03-0.16-0.06-0.31-0.09-0.47c0-0.01,0-0.02-0.01-0.02c-0.01-0.04-0.02-0.1-0.03-0.14c-0.43-2.12-0.78-3.86-1.03-5.07
			c8.64,7.78,32.8,28.56,43.23,27.78C549.45,1118.95,549.57,1119.27,549.68,1119.58z"/>
	</g>
	<g id="XMLID_13_">
		<path class="st5" d="M598.8,1453.09c-0.37,0-0.73-0.21-0.9-0.56c-0.24-0.5-0.03-1.09,0.46-1.34l23.36-11.37
			c0.5-0.24,1.09-0.03,1.34,0.46c0.24,0.5,0.03,1.09-0.46,1.34l-23.36,11.37C599.09,1453.06,598.94,1453.09,598.8,1453.09z"/>
	</g>
	<g id="XMLID_143_">
		<path class="st5" d="M597.73,1441.72c-0.37,0-0.72-0.2-0.9-0.55c-0.25-0.49-0.05-1.09,0.45-1.34l26.86-13.47
			c0.49-0.25,1.09-0.05,1.34,0.45c0.25,0.49,0.05,1.09-0.45,1.34l-26.86,13.47C598.03,1441.69,597.88,1441.72,597.73,1441.72z"/>
	</g>
	<g id="XMLID_149_">
		<path class="st5" d="M754.84,1314.31c-0.38,0-0.74-0.21-0.91-0.57c-0.24-0.5-0.02-1.1,0.48-1.33l21.59-10.15
			c0.5-0.23,1.1-0.02,1.33,0.48c0.24,0.5,0.02,1.1-0.48,1.33l-21.59,10.15C755.12,1314.28,754.98,1314.31,754.84,1314.31z"/>
	</g>
	<g id="XMLID_140_">
		<path class="st5" d="M752.73,1302.9c-0.38,0-0.74-0.21-0.91-0.57c-0.24-0.5-0.02-1.1,0.48-1.33l21.59-10.15
			c0.5-0.23,1.1-0.02,1.33,0.48c0.24,0.5,0.02,1.1-0.48,1.33l-21.59,10.15C753.02,1302.87,752.87,1302.9,752.73,1302.9z"/>
	</g>
	<g id="XMLID_147_">
		<path class="st5" d="M749.39,1292.48c-0.38,0-0.74-0.21-0.91-0.57c-0.24-0.5-0.02-1.1,0.48-1.33l21.59-10.15
			c0.5-0.23,1.1-0.02,1.33,0.48c0.24,0.5,0.02,1.1-0.48,1.33l-21.59,10.15C749.68,1292.45,749.54,1292.48,749.39,1292.48z"/>
	</g>
	<g id="XMLID_219_">
		<g>
			<path class="st5" d="M455.88,1549.79c-0.59,0-1.13-0.4-1.27-1c-0.17-0.7,0.27-1.41,0.97-1.57c0.26-0.06,26.19-6.36,42.03-23.37
				c0.49-0.53,1.32-0.56,1.85-0.07c0.53,0.49,0.56,1.32,0.07,1.85c-16.39,17.6-42.24,23.88-43.34,24.13
				C456.08,1549.78,455.98,1549.79,455.88,1549.79z"/>
		</g>
	</g>
	<g id="XMLID_251_">
		<g>
			<path class="st5" d="M409.51,1368.56c-0.2,0-0.4-0.04-0.59-0.14c-0.64-0.32-0.9-1.11-0.58-1.75l8.17-16.24
				c0.32-0.65,1.11-0.91,1.75-0.58c0.64,0.32,0.9,1.11,0.58,1.75l-8.17,16.24C410.45,1368.29,409.99,1368.56,409.51,1368.56z"/>
		</g>
	</g>
	<g id="XMLID_252_">
		<g>
			<path class="st5" d="M568.23,1249.97c-0.61,0-1.16-0.43-1.28-1.05l-2.67-13.57c-0.14-0.71,0.32-1.39,1.03-1.53
				c0.71-0.14,1.39,0.32,1.53,1.03l2.67,13.57c0.14,0.71-0.32,1.39-1.03,1.53C568.4,1249.97,568.31,1249.97,568.23,1249.97z"/>
		</g>
	</g>
	<g id="XMLID_284_">
		<g>
			<path class="st5" d="M451.18,1274.5c-0.59,0-1.13-0.41-1.27-1.01c-5.78-24.55-20.14-66.31-20.28-66.73
				c-0.23-0.68,0.13-1.42,0.81-1.66c0.68-0.23,1.43,0.13,1.66,0.81c0.14,0.42,14.54,42.3,20.36,66.98c0.17,0.7-0.27,1.41-0.97,1.57
				C451.38,1274.49,451.28,1274.5,451.18,1274.5z"/>
		</g>
	</g>
	<g id="XMLID_185_">
		<g>
			<path class="st5" d="M636.43,1241.9c-0.62,0-1.17-0.44-1.28-1.07l-5.47-30.23c-0.01-0.04-0.01-0.07-0.01-0.11l-3.37-35.62
				c-0.07-0.72,0.46-1.36,1.18-1.42c0.72-0.07,1.36,0.46,1.42,1.18l3.36,35.57l5.46,30.18c0.13,0.71-0.34,1.39-1.05,1.52
				C636.58,1241.89,636.51,1241.9,636.43,1241.9z"/>
		</g>
	</g>
	<g id="XMLID_59_">
		<path class="st0" d="M1520.31,989.94h-481.25c-24.29,0-43.98-19.69-43.98-43.98V791.8c0-24.29,19.69-43.98,43.98-43.98h481.25
			c24.29,0,43.98,19.69,43.98,43.98v154.17C1564.28,970.25,1544.6,989.94,1520.31,989.94z"/>
	</g>
	<g id="XMLID_177_">
		<path class="st8" d="M1205.58,868.89c0,27.47-13.14,51.87-33.48,67.25c-14.13,10.69-31.72,17.03-50.79,17.03
			c-19.07,0-36.67-6.35-50.8-17.03c-20.34-15.38-33.48-39.78-33.48-67.25c0-46.55,37.74-84.28,84.28-84.28
			C1167.85,784.6,1205.58,822.34,1205.58,868.89z"/>
	</g>
	<g id="XMLID_155_">
		<circle class="st8" cx="1121.3" cy="868.88" r="79.06"/>
	</g>
	<g id="XMLID_80_">
		<path class="st22" d="M1132.62,882.03c0,0,25.85-11.72,27.95-17.43s0-7.82,0-7.82s13.14-3.51,7.17-10.92
			c0,0,7.86-14.99-2.66-16.91c0,0,4.81-7.03-3.61-7.63c0,0-1.09-8.53-11.1-7.95c0,0-4.79-10.74-18.43-2.9c0,0-2.76-8.56-12.91-5.22
			c0,0-9.77-4.42-13.72,4.98c0,0-14.21-7.11-22.92,10.77c0,0-15.36,6.42-7.34,18.8c0,0-5.73,5.3-1.38,10.9c0,0-3.67,11.1,6.65,12.25
			c0,0-1.04,7.64,8.71,11c9.75,3.36,15.36,13.75,15.36,13.75L1132.62,882.03z"/>
	</g>
	<g id="XMLID_82_">
		<g id="XMLID_83_">
			<path class="st12" d="M1131.65,876.7c0,0,4.58-6.19,13.98-7.34c9.4-1.15,7.57,16.51-5.73,15.13
				C1126.61,883.11,1131.65,876.7,1131.65,876.7z"/>
		</g>
	</g>
	<g id="XMLID_78_">
		<g id="XMLID_81_">
			<path class="st12" d="M1106.92,876.7c0,0-4.58-6.19-13.98-7.34s-7.57,16.51,5.73,15.13
				C1111.97,883.11,1106.92,876.7,1106.92,876.7z"/>
		</g>
	</g>
	<g id="XMLID_77_">
		<path class="st4" d="M1481.74,801.86l3.13,6.35c0.51,1.03,1.49,1.74,2.62,1.91l7.01,1.02c2.86,0.42,4,3.93,1.93,5.94l-5.07,4.94
			c-0.82,0.8-1.2,1.95-1,3.08l1.2,6.98c0.49,2.85-2.5,5.02-5.05,3.67l-6.27-3.29c-1.01-0.53-2.23-0.53-3.24,0l-6.27,3.29
			c-2.56,1.34-5.54-0.83-5.05-3.67l1.2-6.98c0.19-1.13-0.18-2.28-1-3.08l-5.07-4.94c-2.07-2.02-0.93-5.53,1.93-5.94l7.01-1.02
			c1.13-0.16,2.12-0.88,2.62-1.91l3.13-6.35C1476.78,799.27,1480.47,799.27,1481.74,801.86z"/>
	</g>
	<g id="XMLID_76_">
		<path class="st4" d="M1429.26,801.86l3.13,6.35c0.51,1.03,1.49,1.74,2.62,1.91l7.01,1.02c2.86,0.42,4,3.93,1.93,5.94l-5.07,4.94
			c-0.82,0.8-1.2,1.95-1,3.08l1.2,6.98c0.49,2.85-2.5,5.02-5.05,3.67l-6.27-3.29c-1.01-0.53-2.23-0.53-3.24,0l-6.27,3.29
			c-2.56,1.34-5.54-0.83-5.05-3.67l1.2-6.98c0.19-1.13-0.18-2.28-1-3.08l-5.07-4.94c-2.07-2.02-0.93-5.53,1.93-5.94l7.01-1.02
			c1.13-0.16,2.12-0.88,2.62-1.91l3.13-6.35C1424.29,799.27,1427.98,799.27,1429.26,801.86z"/>
	</g>
	<g id="XMLID_75_">
		<path class="st4" d="M1376.77,801.86l3.13,6.35c0.51,1.03,1.49,1.74,2.62,1.91l7.01,1.02c2.86,0.42,4,3.93,1.93,5.94l-5.07,4.94
			c-0.82,0.8-1.2,1.95-1,3.08l1.2,6.98c0.49,2.85-2.5,5.02-5.05,3.67l-6.27-3.29c-1.01-0.53-2.23-0.53-3.24,0l-6.27,3.29
			c-2.56,1.34-5.54-0.83-5.05-3.67l1.2-6.98c0.19-1.13-0.18-2.28-1-3.08l-5.07-4.94c-2.07-2.02-0.93-5.53,1.93-5.94l7.01-1.02
			c1.13-0.16,2.12-0.88,2.62-1.91l3.13-6.35C1371.8,799.27,1375.49,799.27,1376.77,801.86z"/>
	</g>
	<g id="XMLID_74_">
		<path class="st4" d="M1324.29,801.86l3.13,6.35c0.51,1.03,1.49,1.74,2.62,1.91l7.01,1.02c2.86,0.42,4,3.93,1.93,5.94l-5.07,4.94
			c-0.82,0.8-1.2,1.95-1,3.08l1.2,6.98c0.49,2.85-2.5,5.02-5.05,3.67l-6.27-3.29c-1.01-0.53-2.23-0.53-3.24,0l-6.27,3.29
			c-2.56,1.34-5.54-0.83-5.05-3.67l1.2-6.98c0.19-1.13-0.18-2.28-1-3.08l-5.07-4.94c-2.07-2.02-0.93-5.53,1.93-5.94l7.01-1.02
			c1.13-0.16,2.12-0.88,2.62-1.91l3.13-6.35C1319.32,799.27,1323.01,799.27,1324.29,801.86z"/>
	</g>
	<g id="XMLID_64_">
		<path class="st4" d="M1271.8,801.86l3.13,6.35c0.51,1.03,1.49,1.74,2.62,1.91l7.01,1.02c2.86,0.42,4,3.93,1.93,5.94l-5.07,4.94
			c-0.82,0.8-1.2,1.95-1,3.08l1.2,6.98c0.49,2.85-2.5,5.02-5.05,3.67l-6.27-3.29c-1.01-0.53-2.23-0.53-3.24,0l-6.27,3.29
			c-2.56,1.34-5.54-0.83-5.05-3.67l1.2-6.98c0.19-1.13-0.18-2.28-1-3.08l-5.07-4.94c-2.07-2.02-0.93-5.53,1.93-5.94l7.01-1.02
			c1.13-0.16,2.12-0.88,2.62-1.91l3.13-6.35C1266.83,799.27,1270.52,799.27,1271.8,801.86z"/>
	</g>
	<g id="XMLID_214_">
		<polygon class="st12" points="1111.2,900.8 1111.2,916.37 1130.71,916.37 1130.71,897.51 		"/>
	</g>
	<g id="XMLID_79_">
		<path class="st16" d="M1098.26,857.15c0,0-5.24,47.59,20.69,49.76s22.73-35.39,23.89-49.76
			C1144,842.78,1098.6,843.15,1098.26,857.15z"/>
	</g>
	<g id="XMLID_173_">
		<path class="st13" d="M1172.1,936.13c-14.13,10.69-31.72,17.03-50.79,17.03c-19.07,0-36.67-6.35-50.8-17.03
			c11.66-15.32,30.08-25.2,50.8-25.2C1142.04,910.93,1160.46,920.81,1172.1,936.13z"/>
	</g>
	<g id="XMLID_231_">
		<g>
			<rect x="1850.51" y="2124.03" width="158.84" height="3.48"/>
		</g>
	</g>
	<g id="XMLID_228_">
		<g id="XMLID_217_">
			<rect x="2099.05" y="2124.03" width="116.99" height="3.48"/>
		</g>
	</g>
	<g id="XMLID_166_">
		<g>
			<path d="M564.82,1300.85c-1.66,0-3.08-1.28-3.22-2.96c-0.07-0.86,0.2-1.7,0.75-2.36c0.56-0.66,1.34-1.06,2.2-1.14l166.45-14.01
				c0.86-0.07,1.7,0.2,2.36,0.75c0.66,0.56,1.06,1.34,1.14,2.2c0.07,0.86-0.19,1.7-0.75,2.36c-0.56,0.66-1.34,1.06-2.2,1.14
				l-166.45,14.01C565,1300.85,564.91,1300.85,564.82,1300.85z"/>
		</g>
	</g>
	<g id="XMLID_180_">
		<g>
			<path d="M566.44,1338.69c-1.66,0-3.08-1.28-3.22-2.96c-0.07-0.86,0.19-1.7,0.75-2.36c0.56-0.66,1.34-1.06,2.2-1.14l143.38-12.07
				c0.86-0.07,1.7,0.19,2.36,0.75c0.66,0.56,1.06,1.34,1.14,2.2c0.07,0.86-0.19,1.7-0.75,2.36s-1.34,1.06-2.2,1.14l-143.39,12.07
				C566.62,1338.69,566.53,1338.69,566.44,1338.69z"/>
		</g>
	</g>
	<g id="XMLID_68_">
		<g>
			<path d="M568.14,1380.69c-0.76,0-1.49-0.27-2.08-0.76c-0.66-0.56-1.06-1.34-1.14-2.2c-0.15-1.78,1.17-3.35,2.95-3.5l111.21-9.36
				c1.78-0.15,3.35,1.18,3.5,2.95c0.07,0.86-0.19,1.7-0.75,2.36c-0.56,0.66-1.34,1.06-2.2,1.14l-111.21,9.36
				C568.33,1380.68,568.23,1380.69,568.14,1380.69z M679.34,1367.84C679.34,1367.84,679.34,1367.84,679.34,1367.84L679.34,1367.84
				C679.34,1367.84,679.34,1367.84,679.34,1367.84z"/>
		</g>
	</g>
	<g id="XMLID_274_">
		<ellipse class="st17" cx="576.42" cy="1064.86" rx="7.83" ry="3.92"/>
	</g>
	<g id="XMLID_242_">
		<ellipse class="st17" cx="529.42" cy="1064.86" rx="7.83" ry="3.92"/>
	</g>
	<g id="XMLID_328_">
		<path class="st23" d="M1936.32,608.33h-27.84c-7.46,0-13.5-6.04-13.5-13.5V475.59c0-7.46,6.04-13.5,13.5-13.5h27.84
			c7.46,0,13.5,6.04,13.5,13.5v119.24C1949.82,602.29,1943.78,608.33,1936.32,608.33z"/>
	</g>
	<g>
		<path class="st24" d="M2153.06,488.68v-20.89c0-4.33-3.51-7.83-7.83-7.83h-96.43c-0.1-1.66,0.12-3.38,0.75-5.08
			c6.62-17.87,12.64-45.84-7.27-59.31c-30.59-20.69-29.69,12.6-30.59,27.69c-0.67,11.18-17.12,41.92-25.61,57.13h-83.25
			c-4.33,0-7.83,3.51-7.83,7.83v20.89c0,4.33,3.51,7.83,7.83,7.83h11.98c-1.61,30.06-3.06,72.95,1.78,72.95
			c7.46,0,24.79-0.47,40.22,9.9c4.78,3.21,17.33,5.1,33.24,6c1.25,0.27,2.54,0.42,3.87,0.42h0h6.05c9.88,0.29,20.6,0.27,31.3,0
			h90.62h0c10.1,0,18.28-8.18,18.28-18.28v0c0-10.1-8.18-18.28-18.28-18.28h23.35c4.33,0,7.83-3.51,7.83-7.83v-20.89
			c0-4.33-3.51-7.83-7.83-7.83h-2.15c4.33,0,7.83-3.51,7.83-7.83v-20.89c0-4.33-3.51-7.83-7.83-7.83h2.15
			C2149.55,496.51,2153.06,493,2153.06,488.68z"/>
	</g>
	<g id="XMLID_87_">
		<rect x="1882.08" y="453.49" class="st14" width="74.87" height="154.85"/>
	</g>
	<g id="XMLID_88_">
		<rect x="2075.64" y="529.91" class="st0" width="75.27" height="2"/>
	</g>
	<g id="XMLID_66_">
		<g>
			<path d="M2150.91,533.52h-75.27c-1.44,0-2.61-1.17-2.61-2.61s1.17-2.61,2.61-2.61h75.27c1.44,0,2.61,1.17,2.61,2.61
				S2152.35,533.52,2150.91,533.52z"/>
		</g>
	</g>
	<g id="XMLID_234_">
		<g>
			<path d="M2150.91,499.12h-75.27c-1.44,0-2.61-1.17-2.61-2.61s1.17-2.61,2.61-2.61h75.27c1.44,0,2.61,1.17,2.61,2.61
				S2152.35,499.12,2150.91,499.12z"/>
		</g>
	</g>
	<g id="XMLID_230_">
		<g>
			<path d="M2148.14,572.23h-59.6c-1.44,0-2.61-1.17-2.61-2.61s1.17-2.61,2.61-2.61h59.6c1.44,0,2.61,1.17,2.61,2.61
				S2149.59,572.23,2148.14,572.23z"/>
		</g>
	</g>
	<g id="XMLID_145_">
		<g>
			<path class="st5" d="M605.8,1980.69c-0.69,0-1.26-0.54-1.3-1.23L581,1580.51c-0.04-0.72,0.51-1.34,1.23-1.38
				c0.73-0.04,1.34,0.51,1.38,1.23l23.49,398.95c0.04,0.72-0.51,1.34-1.23,1.38C605.85,1980.69,605.82,1980.69,605.8,1980.69z"/>
		</g>
	</g>
	<g id="XMLID_206_">
		<path d="M480.5,1441.59l28.93-36.15c-1.27-0.62-2.52-1.24-3.76-1.88c-6.15-3.13-11.67-6.32-14.76-8.15l-24.62,43.08L480.5,1441.59
			z"/>
	</g>
	<g id="XMLID_17_">
		<path class="st0" d="M507.14,1387.14c1.43-0.99,1.4-3.1-0.08-4.01l0,0l-30.92-18.8c-1.16-0.71-2.68-0.3-3.33,0.9l-38.04,70.51
			c-0.65,1.21-0.15,2.72,1.11,3.29l22.01,10.03l6.94,3.16c1.23,0.56,2.68-0.01,3.19-1.26
			C472.18,1440.71,489.89,1399.02,507.14,1387.14z"/>
	</g>
	<g>
		<path class="st16" d="M1683.65,1346.4l0-0.01l-2.96-8.83h-34.25c0,0-17.12-12.66-26.06-12.29c-7.54,0.31-13.49,2.23,4.1,15.35
			c-11.8,1.73-23.56,6.11-30.6,0.74c-10.42-7.97-21.46-20.24-31.89-12.87c-10.42,7.36,39.25,41.08,39.25,41.08
			s35.77,12.99,76.6,4.21c0.79-0.17,1.58-0.35,2.38-0.53c1.9-0.44,3.62-0.91,5.18-1.39
			C1710.91,1363.98,1692.93,1351.54,1683.65,1346.4z"/>
	</g>
	<g>
		<path class="st5" d="M1645.26,1354.2l-39.41-2.31l-6.59-5.44l45.5-3.75c0.48-0.04,0.84-0.46,0.8-0.94
			c-0.04-0.48-0.47-0.83-0.94-0.8l-47.28,3.9l-16.73-13.81c-0.37-0.31-0.92-0.25-1.23,0.12c-0.31,0.37-0.25,0.92,0.12,1.23
			l25.47,21.01c0.14,0.12,0.32,0.19,0.5,0.2l39.7,2.33c0.02,0,0.03,0,0.05,0c0.46,0,0.84-0.36,0.87-0.82
			C1646.11,1354.64,1645.74,1354.23,1645.26,1354.2z"/>
	</g>
	<g id="XMLID_45_">
		<path class="st25" d="M1687.06,1391.79l38.01-4.48c0,0-11.96-50.31-7.97-67.25l-40.35,6.97
			C1676.76,1327.03,1674.95,1384.82,1687.06,1391.79z"/>
	</g>
	<g id="XMLID_49_">
		<path class="st26" d="M2136.66,1461.84c0,0-0.9,238.38,13.47,355.09s19.75,229.84,19.75,229.84h-68.23
			c0,0-46.69-175.38-53.45-259.17s-27.11-197.32-27.11-197.32s-18.44,186.51-13.91,251.38c4.53,64.87,5.88,205.11,5.88,205.11
			l-77.04,7.08c0,0-32.44-185.16-32.44-247.33c0-62.17,5.41-339.97,5.41-339.97L2136.66,1461.84z"/>
	</g>
	<g id="XMLID_152_">
		<g>
			<path class="st5" d="M2136.88,1521.59c-0.12,0-0.24-0.02-0.35-0.05c-29.39-8.24-38.22-38.69-38.31-39
				c-0.19-0.69,0.21-1.41,0.9-1.61c0.7-0.19,1.41,0.21,1.61,0.9c0.08,0.29,8.55,29.35,36.5,37.19c0.69,0.19,1.1,0.92,0.9,1.61
				C2137.98,1521.22,2137.45,1521.59,2136.88,1521.59z"/>
		</g>
	</g>
	<g id="XMLID_153_">
		<g>
			<path class="st5" d="M1907.87,1526.84c-0.5,0-0.98-0.29-1.2-0.78c-0.29-0.66,0.01-1.43,0.67-1.72
				c27.25-12.01,32.12-34.82,32.17-35.05c0.14-0.71,0.83-1.17,1.54-1.02c0.71,0.14,1.17,0.83,1.03,1.53
				c-0.2,0.99-5.12,24.35-33.67,36.93C1908.22,1526.8,1908.04,1526.84,1907.87,1526.84z"/>
		</g>
	</g>
	<g>
		<path class="st5" d="M2035,1486.34c-0.72,0-1.31,0.58-1.31,1.31v23.59c0,4.86-3.09,9.19-7.68,10.78l-4.85,1.68l-0.61-36.07
			c-0.01-0.72-0.64-1.31-1.33-1.28c-0.72,0.01-1.3,0.61-1.28,1.33l0.64,37.57c-0.05,0.2-0.04,0.42,0.01,0.63l1.18,69.65
			c0.01,0.71,0.59,1.28,1.3,1.28c0.01,0,0.02,0,0.02,0c0.72-0.01,1.3-0.61,1.28-1.33l-1.17-69.02l5.66-1.96
			c5.64-1.95,9.43-7.28,9.43-13.25v-23.59C2036.3,1486.93,2035.72,1486.34,2035,1486.34z"/>
	</g>
	<g>
		<path class="st25" d="M2143.49,1426.22l-245.69,14.06c0,0-1.69,16.58,0,31.75c1.69,15.17,0.64,10.26,32.72,16.04
			c32.07,5.77,198.22-7.06,208.48-10.26C2149.27,1474.6,2143.49,1426.22,2143.49,1426.22z"/>
	</g>
	<g id="XMLID_299_">
		<path class="st27" d="M2236.48,1273.25c-7.26,29.38-38.09,136.3-111.14,179.21c-5.8,3.41-12.38,5.25-19.1,5.53
			c-41.25,1.73-202.64,7.92-210.14-0.41c-8.6-9.56,5.74-103.21,5.74-103.21s-0.14,0.04-0.4,0.12c-2.21,0.67-13.36,4.03-29.19,8.64
			c-49.34,14.36-144.05,40.82-153.9,35.19c-13.38-7.65-30.49-97.61,8.17-85.13c9.37,3.03,97.31-25.67,120.29-32.44
			c22.97-6.76,27.18-153.3,78.39-182.45c8.1-4.61,165.7-16.1,228.21-21.68c17.03-1.52,33.25,7.5,41,22.75
			c13.91,27.39,33.74,78.45,43.03,159.07C2238.01,1263.42,2237.68,1268.42,2236.48,1273.25z"/>
	</g>
	<g id="XMLID_289_">
		<g>
			<path class="st5" d="M1901.85,1355.69c-0.05,0-0.1,0-0.15-0.01c-0.72-0.08-1.23-0.73-1.14-1.45l28.59-242.21
				c0.08-0.72,0.73-1.23,1.45-1.14c0.72,0.08,1.23,0.73,1.14,1.45l-28.59,242.21C1903.06,1355.2,1902.5,1355.69,1901.85,1355.69z"/>
		</g>
	</g>
	<g id="XMLID_35_">
		<path class="st16" d="M1972.53,944.19c0,0-6.93,59.36-6.93,82.12c0,22.76-0.49,53.92,67.77,23.25c0,0,42.05-29.24,49.47-46.28
			s-10.39-75.91-31.66-77.89C2029.92,923.41,1972.53,944.19,1972.53,944.19z"/>
	</g>
	<g id="XMLID_136_">
		<path d="M1983.7,963.24c0,0-14.91-1.81-16.39,1.89c-1.48,3.7,8.71,4.28,8.71,4.28s6.9,0.73,8.22-0.58
			S1986.53,964.72,1983.7,963.24z"/>
	</g>
	<g id="XMLID_135_">
		<path d="M2025.08,968.7c0,0-14.91-1.81-16.39,1.89c-1.48,3.7,8.71,4.28,8.71,4.28s6.9,0.73,8.22-0.58
			C2026.94,972.97,2027.91,970.18,2025.08,968.7z"/>
	</g>
	<g id="XMLID_134_">
		<path d="M1994.15,1027.12l21.91-12.17C2016.06,1014.95,2014.96,1048.42,1994.15,1027.12z"/>
	</g>
	<g id="XMLID_133_">
		<ellipse transform="matrix(0.1491 -0.9888 0.9888 0.1491 733.5281 2835.6714)" cx="2014.38" cy="991.63" rx="6.71" ry="4.71"/>
	</g>
	<g id="XMLID_131_">
		<ellipse transform="matrix(0.1491 -0.9888 0.9888 0.1491 705.2318 2795.8728)" cx="1977.11" cy="988.17" rx="6.71" ry="4.71"/>
	</g>
	<g id="XMLID_132_">
		<g>
			<path d="M1990.48,1017.39c-0.11,0-0.23-0.02-0.34-0.07c-1.31-0.55-2.27-1.59-2.88-3.09c-3.37-8.36,5.7-29.71,6.09-30.61
				c0.19-0.44,0.7-0.65,1.14-0.46c0.44,0.19,0.65,0.7,0.46,1.14c-0.09,0.21-9.18,21.59-6.07,29.28c0.43,1.07,1.07,1.77,1.94,2.13
				c0.44,0.19,0.65,0.7,0.47,1.14C1991.15,1017.19,1990.82,1017.39,1990.48,1017.39z"/>
		</g>
	</g>
	<g id="XMLID_247_">
		<polygon class="st16" points="2065.54,1064.39 2023.39,1069.45 2016.07,1070.33 2016.07,1036.69 2057.61,1003.55 		"/>
	</g>
	<path class="st5" d="M2082.46,917.21c-52.56-14.81-39.18-48.26-75.97-37.27s-113.43,62.25,34.31,81.53c0,0-5.16,22.92,10.6,32.33
		c0,0,9.67-15.73,20.55-16.39c10.88-0.66,26.26,23.75-14.81,42.93l5.9,24.84c0,0,18.95-32.41,34.72-49.13
		S2135.02,932.02,2082.46,917.21z"/>
	<g id="XMLID_38_">
		<polygon class="st25" points="2086.8,1083.19 2082.35,1062.36 1986.88,1072.78 1986.88,1094.08 		"/>
	</g>
	<g id="XMLID_183_">
		<path d="M2056.06,1023.06c-2.88,8.52-11.56,30.06-32.67,46.39l-7.32,0.88v-13.77C2016.07,1056.56,2049.48,1034.23,2056.06,1023.06
			z"/>
	</g>
	<g id="XMLID_292_">
		<g>
			<path class="st5" d="M2091.06,1399.72c-0.05,0-0.11,0-0.16-0.01c-0.71-0.09-1.22-0.74-1.14-1.46c0.6-4.85,2.41-9.52,5.24-13.5
				l62.2-87.53c4.44-6.25,6.01-14.12,4.3-21.6c-3.21-14.03-8.89-39.69-17.67-82.21c-5.73-27.76-5.65-52.02,0.26-72.11
				c4.59-15.61,11.29-23.52,13.23-25.57c0.3-0.32,0.46-0.46,0.46-0.46c0.53-0.49,1.35-0.46,1.85,0.07c0.49,0.53,0.47,1.35-0.06,1.84
				l0,0c-0.02,0.02-0.13,0.13-0.34,0.35c-2.74,2.89-26.32,30.1-12.83,95.36c8.78,42.5,14.45,68.13,17.66,82.15
				c1.88,8.2,0.16,16.84-4.71,23.69l-62.2,87.53c-2.58,3.63-4.23,7.89-4.78,12.31C2092.27,1399.23,2091.71,1399.72,2091.06,1399.72z
				"/>
		</g>
	</g>
	<g>
		<path d="M2072.15,996.25c-0.45-0.11-3.4-0.8-5.76-0.26c1.84-2.56,4.67-3.47,4.87-3.53c0.46-0.14,0.72-0.63,0.58-1.08
			c-0.14-0.46-0.62-0.72-1.09-0.58c-0.1,0.03-10.09,3.19-7.15,14.09c0.11,0.39,0.46,0.64,0.84,0.64c0.08,0,0.15-0.01,0.23-0.03
			c0.46-0.12,0.74-0.6,0.61-1.07c-0.63-2.33-0.58-4.24-0.16-5.8c0.11-0.06,0.21-0.13,0.29-0.23c0.96-1.24,4.39-0.94,6.32-0.46
			c0.46,0.12,0.94-0.17,1.06-0.63C2072.9,996.84,2072.62,996.37,2072.15,996.25z"/>
	</g>
	<g id="XMLID_204_">
		<ellipse class="st28" cx="2025.82" cy="1001.86" rx="7.83" ry="3.92"/>
	</g>
	<g id="XMLID_197_">
		<ellipse class="st28" cx="1970.97" cy="1001.86" rx="7.83" ry="3.92"/>
	</g>
	<g id="XMLID_84_">
		<path class="st4" d="M2004.02,1210.85l25.33,63.05c1.1,2.73,3.47,4.74,6.34,5.39l66.3,14.88c7.23,1.62,9.46,10.83,3.77,15.58
			l-52.14,43.57c-2.26,1.89-3.44,4.76-3.17,7.69l6.34,67.65c0.69,7.38-7.38,12.34-13.65,8.4l-57.55-36.12
			c-2.49-1.56-5.59-1.8-8.29-0.64l-62.38,26.93c-6.8,2.94-14.02-3.2-12.21-10.38l16.57-65.9c0.72-2.85-0.02-5.88-1.96-8.08
			l-44.89-51.01c-4.89-5.56-1.29-14.32,6.1-14.82l67.79-4.61c2.93-0.2,5.58-1.83,7.08-4.36l34.64-58.46
			C1991.82,1203.25,2001.26,1203.98,2004.02,1210.85z"/>
	</g>
	<g id="XMLID_44_">
		<path class="st16" d="M2007.17,1432.44l-14.45-19.55c0,0-12.81,0.27,0,19.55C2005.53,1451.72,2007.17,1432.44,2007.17,1432.44z"/>
	</g>
	<g id="XMLID_275_">
		<path class="st16" d="M2091.94,1451.18c0,0-6.66,1.12-16.02,2.53c-17.65,2.66-44.9,6.38-55.4,5.65
			c-16.06-1.11-34.88-18.53-45.79-29.98c-10.9-11.46-3.54-17.44,0-16.36c3.54,1.09,17.18,15.54,17.18,15.54h44.7c0,0,0,0-15.54-1.1
			c-15.54-1.09-8.45-10.63-8.45-10.63s20.17-0.54,28.07-1.91c7.9-1.36,20.45,10.63,20.45,10.63l8.78-1.8l11.11-2.28L2091.94,1451.18
			z"/>
	</g>
	<g id="XMLID_37_">
		<g>
			<path class="st5" d="M2050.56,1429.43h-59.1c-0.48,0-0.87-0.39-0.87-0.87s0.39-0.87,0.87-0.87h59.1c0.48,0,0.87,0.39,0.87,0.87
				S2051.04,1429.43,2050.56,1429.43z"/>
		</g>
	</g>
	<g id="XMLID_109_">
		<g>
			<path class="st5" d="M2019.25,1444.04h-29.98c-0.48,0-0.87-0.39-0.87-0.87s0.39-0.87,0.87-0.87h29.98c0.48,0,0.87,0.39,0.87,0.87
				S2019.73,1444.04,2019.25,1444.04z"/>
		</g>
	</g>
	<g id="XMLID_110_">
		<g>
			<path class="st5" d="M2023.7,1452.5h-23.08c-0.48,0-0.87-0.39-0.87-0.87c0-0.48,0.39-0.87,0.87-0.87h23.08
				c0.48,0,0.87,0.39,0.87,0.87C2024.57,1452.11,2024.18,1452.5,2023.7,1452.5z"/>
		</g>
	</g>
	<g id="XMLID_238_">
		<path d="M2091.94,1451.18c0,0-6.66,1.12-16.02,2.53l-6-29.95l11.11-2.28L2091.94,1451.18z"/>
	</g>
	<g id="XMLID_41_">
		<path class="st25" d="M2091.06,1398.41l11.6,31.15l13.13,28.03c0,0-15,9.86-21.32,8.89c-6.32-0.97-25.77-50.08-23.34-54.94
			S2087.65,1397.44,2091.06,1398.41z"/>
	</g>
	<g id="XMLID_58_">
		<path class="st13" d="M2036.52,826.5h-256.53c-34.66,0-62.75-28.09-62.75-62.75V741.6c0-34.66,28.09-62.75,62.75-62.75h256.53
			c34.66,0,62.75,28.09,62.75,62.75v22.15C2099.27,798.4,2071.18,826.5,2036.52,826.5z"/>
	</g>
	<g id="XMLID_137_">
		<g>
			<path class="st0" d="M1909.86,729.27h-31.31l-3.16,18.02c1.89-0.22,3.66-0.43,6.69-0.43c6.31,0,12.62,1.19,17.68,3.78
				c6.44,3.13,11.74,9.17,11.74,18.02c0,13.7-12.75,23.96-30.55,23.96c-8.96,0-16.54-2.16-20.45-4.32l2.78-7.23
				c3.41,1.73,10.1,3.88,17.55,3.88c10.48,0,19.44-5.83,19.44-15.22c-0.13-9.06-7.2-15.54-23.61-15.54c-4.67,0-8.33,0.43-11.36,0.76
				l5.3-33.67h39.26V729.27z"/>
		</g>
		<g>
			<path class="st0" d="M2028.15,729.27h-31.31l-3.16,18.02c1.89-0.22,3.66-0.43,6.69-0.43c6.31,0,12.62,1.19,17.68,3.78
				c6.44,3.13,11.74,9.17,11.74,18.02c0,13.7-12.75,23.96-30.55,23.96c-8.96,0-16.54-2.16-20.45-4.32l2.78-7.23
				c3.41,1.73,10.1,3.88,17.55,3.88c10.48,0,19.44-5.83,19.44-15.22c-0.13-9.06-7.2-15.54-23.61-15.54c-4.67,0-8.33,0.43-11.36,0.76
				l5.3-33.67h39.26V729.27z"/>
		</g>
	</g>
	<g id="XMLID_36_">
		<path class="st4" d="M1807.45,717.63l6.92,14.02c0.77,1.56,2.26,2.65,3.99,2.9l15.48,2.25c4.34,0.63,6.08,5.97,2.94,9.03
			l-11.2,10.92c-1.25,1.22-1.82,2.97-1.52,4.69l2.64,15.41c0.74,4.33-3.8,7.63-7.68,5.58l-13.84-7.28c-1.54-0.81-3.39-0.81-4.93,0
			l-13.84,7.28c-3.89,2.04-8.43-1.26-7.68-5.58l2.64-15.41c0.29-1.72-0.27-3.47-1.52-4.69l-11.2-10.92
			c-3.14-3.06-1.41-8.4,2.94-9.03l15.48-2.25c1.72-0.25,3.22-1.33,3.99-2.9l6.92-14.02C1799.89,713.7,1805.51,713.7,1807.45,717.63z
			"/>
	</g>
	<g id="XMLID_42_">
		<g>
			<path class="st0" d="M1922.23,793.14c-0.66,0-1.33-0.17-1.94-0.52c-1.88-1.07-2.53-3.47-1.46-5.34l37.27-65.22
				c1.07-1.88,3.47-2.53,5.34-1.46c1.88,1.07,2.53,3.47,1.46,5.35l-37.27,65.22C1924.91,792.43,1923.59,793.14,1922.23,793.14z"/>
		</g>
	</g>
	<g id="XMLID_51_">
		<path class="st6" d="M2185.85,2038.31l1.8,19.42c0.53,5.71-3.71,10.75-9.43,11.2c-20.46,1.59-65.77,4.56-86.59,1.5
			c-5.02-0.74-8.72-5.09-8.72-10.16v-22.12c0-5.88,4.92-10.56,10.79-10.27c19.63,0.98,61.02,2.72,81.09,1.14
			C2180.4,2028.57,2185.33,2032.7,2185.85,2038.31z"/>
	</g>
	<g id="XMLID_52_">
		<path class="st6" d="M2009.83,2034.38l-77.82,5.72c-6.01,0.44-10.67,5.45-10.67,11.48v14.6c0,6.17,4.86,11.24,11.02,11.5
			c19.46,0.83,59.65,1.82,78.77-3.01c4.53-1.14,7.88-4.95,8.52-9.58l2.43-17.67C2023.08,2040.17,2017.13,2033.84,2009.83,2034.38z"
			/>
	</g>
	<path d="M1497.88,862.04H1255c-1.66,0-3-1.34-3-3s1.34-3,3-3h242.87c1.66,0,3,1.34,3,3S1499.53,862.04,1497.88,862.04z"/>
	<path d="M1497.88,901.21H1255c-1.66,0-3-1.34-3-3s1.34-3,3-3h242.87c1.66,0,3,1.34,3,3S1499.53,901.21,1497.88,901.21z"/>
	<path d="M1497.88,940.39H1255c-1.66,0-3-1.34-3-3s1.34-3,3-3h242.87c1.66,0,3,1.34,3,3S1499.53,940.39,1497.88,940.39z"/>
	<g id="XMLID_120_">
		<g id="XMLID_121_">
			<path class="st12" d="M1194.25,1280.92c0,0,6.69-9.03,20.39-10.7s11.03,24.07-8.36,22.07
				C1186.9,1290.28,1194.25,1280.92,1194.25,1280.92z"/>
		</g>
	</g>
	<g id="XMLID_118_">
		<g id="XMLID_119_">
			<path class="st12" d="M1158.66,1280.92c0,0-6.69-9.03-20.39-10.7c-13.71-1.67-11.03,24.07,8.36,22.07
				C1166.02,1290.28,1158.66,1280.92,1158.66,1280.92z"/>
		</g>
	</g>
	<g id="XMLID_116_">
		<path class="st16" d="M1145.55,1249.45c0,0-7.65,72.24,30.17,75.52c37.82,3.29,33.14-53.72,34.84-75.52
			S1146.06,1228.2,1145.55,1249.45z"/>
	</g>
</g>
</svg>
